<?xml version="1.0" encoding="UTF-8"?>
<svg version="1.1" xmlns="http://www.w3.org/2000/svg">
 <path d="m15.012 0c-8.3015 0-15.012 6.7604-15.012 15.124 0 6.6854 4.2999 12.345 10.265 14.347 0.7458 0.15057 1.019-0.32542 1.019-0.72582 0-0.35062-0.02459-1.5524-0.02459-2.8046-4.1761 0.90159-5.0457-1.8029-5.0457-1.8029-0.67112-1.7528-1.6655-2.2033-1.6655-2.2033-1.3668-0.92648 0.099562-0.92648 0.099562-0.92648 1.5162 0.10018 2.3118 1.5524 2.3118 1.5524 1.3419 2.3035 3.5044 1.6526 4.3743 1.2519 0.12415-0.97657 0.52209-1.6526 0.94461-2.0281-3.3307-0.35062-6.8351-1.6526-6.8351-7.462 0-1.6526 0.59615-3.0047 1.5408-4.0562-0.14904-0.37551-0.67112-1.9283 0.14934-4.0065 0 0 1.2676-0.40071 4.1257 1.5524a14.433 14.433 0 0 1 3.7533-0.50088c1.2676 0 2.5597 0.17546 3.7529 0.50088 2.8584-1.9531 4.126-1.5524 4.126-1.5524 0.82047 2.0782 0.29807 3.631 0.14904 4.0065 0.9695 1.0516 1.5411 2.4036 1.5411 4.0562 0 5.8093-3.5044 7.0861-6.86 7.462 0.54698 0.47569 1.019 1.377 1.019 2.8043 0 2.0281-0.02458 3.6558-0.02458 4.1564 0 0.40071 0.27349 0.8767 1.019 0.72644 5.9651-2.0035 10.265-7.6623 10.265-14.348 0.024578-8.3635-6.7109-15.124-14.988-15.124z" clip-rule="evenodd" fill="#21327d" fill-rule="evenodd" stroke-width=".30729"/>
</svg>
