<?xml version="1.0" encoding="UTF-8"?>
<svg version="1.1" xmlns="http://www.w3.org/2000/svg">
 <path d="m15.013 0c-8.3017 0-15.013 6.7604-15.013 15.124 0 6.6854 4.2999 12.344 10.265 14.347 0.74579 0.15057 1.0189-0.32542 1.0189-0.72582 0-0.35061-0.02459-1.5524-0.02459-2.8046-4.176 0.90157-5.0457-1.8028-5.0457-1.8028-0.67112-1.7528-1.6655-2.2033-1.6655-2.2033-1.3668-0.92647 0.099562-0.92647 0.099562-0.92647 1.5162 0.10018 2.3117 1.5524 2.3117 1.5524 1.342 2.3035 3.5043 1.6526 4.3743 1.2519 0.12415-0.97657 0.52209-1.6526 0.94462-2.0281-3.3307-0.35062-6.835-1.6526-6.835-7.4619 0-1.6526 0.59614-3.0047 1.5407-4.0562-0.14904-0.37551-0.67112-1.9282 0.14934-4.0065 0 0 1.2676-0.40071 4.1256 1.5524a14.434 14.434 0 0 1 3.7532-0.50088c1.2676 0 2.5597 0.17546 3.7529 0.50088 2.8584-1.9531 4.1259-1.5524 4.1259-1.5524 0.82049 2.0782 0.29807 3.6309 0.14904 4.0065 0.96952 1.0516 1.5411 2.4036 1.5411 4.0562 0 5.8093-3.5043 7.0861-6.8599 7.4619 0.54697 0.47568 1.0189 1.377 1.0189 2.8043 0 2.0281-0.02458 3.6558-0.02458 4.1564 0 0.40071 0.27348 0.87667 1.0189 0.72643 5.9651-2.0035 10.265-7.6619 10.265-14.347 0.024582-8.3632-6.7109-15.124-14.987-15.124z" clip-rule="evenodd" fill="#d96201" fill-rule="evenodd" stroke-width=".30729"/>
</svg>
