<?xml version="1.0" encoding="UTF-8" standalone="no"?>
<svg
   version="1.1"
   id="svg11024"
   sodipodi:docname="github-mark.svg"
   width="30.00005"
   height="29.500393"
   inkscape:version="1.2.2 (b0a84865, 2022-12-01)"
   xmlns:inkscape="http://www.inkscape.org/namespaces/inkscape"
   xmlns:sodipodi="http://sodipodi.sourceforge.net/DTD/sodipodi-0.dtd"
   xmlns="http://www.w3.org/2000/svg"
   xmlns:svg="http://www.w3.org/2000/svg">
  <defs
     id="defs11028" />
  <sodipodi:namedview
     id="namedview11026"
     pagecolor="#ffffff"
     bordercolor="#666666"
     borderopacity="1.0"
     inkscape:showpageshadow="2"
     inkscape:pageopacity="0.0"
     inkscape:pagecheckerboard="0"
     inkscape:deskcolor="#d1d1d1"
     showgrid="false"
     inkscape:zoom="7.8666537"
     inkscape:cx="15.254263"
     inkscape:cy="15.190703"
     inkscape:window-width="1006"
     inkscape:window-height="603"
     inkscape:window-x="276"
     inkscape:window-y="1305"
     inkscape:window-maximized="0"
     inkscape:current-layer="svg11024" />
  <path
     d="M 15.012,7.6e-4 C 6.7105,7.6e-4 0,6.76116 0,15.12476 c 0,6.6854 4.2999,12.345 10.265,14.347 0.7458,0.15057 1.019,-0.32542 1.019,-0.72582 0,-0.35062 -0.02459,-1.5524 -0.02459,-2.8046 -4.1761,0.90159 -5.0457,-1.8029 -5.0457,-1.8029 -0.67112,-1.7528 -1.6655,-2.2033 -1.6655,-2.2033 -1.3668,-0.92648 0.099562,-0.92648 0.099562,-0.92648 1.5162,0.10018 2.3118,1.5524 2.3118,1.5524 1.3419,2.3035 3.5044,1.6526 4.3743,1.2519 0.12415,-0.97657 0.52209,-1.6526 0.94461,-2.0281 -3.3307,-0.35062 -6.8351,-1.6526 -6.8351,-7.462 0,-1.6526 0.59615,-3.0047 1.5408,-4.0562 -0.14904,-0.37551 -0.67112,-1.9283 0.14934,-4.0065 0,0 1.2676,-0.40071 4.1257,1.5524 a 14.433,14.433 0 0 1 3.7533,-0.50088 c 1.2676,0 2.5597,0.17546 3.7529,0.50088 2.8584,-1.9531 4.126,-1.5524 4.126,-1.5524 0.82047,2.0782 0.29807,3.631 0.14904,4.0065 0.9695,1.0516 1.5411,2.4036 1.5411,4.0562 0,5.8093 -3.5044,7.0861 -6.86,7.462 0.54698,0.47569 1.019,1.377 1.019,2.8043 0,2.0281 -0.02458,3.6558 -0.02458,4.1564 0,0.40071 0.27349,0.8767 1.019,0.72644 5.9651,-2.0035 10.265,-7.6623 10.265,-14.348 C 30.024562,6.7605 23.289082,0 15.011982,0 Z"
     clip-rule="evenodd"
     fill="#21327d"
     fill-rule="evenodd"
     stroke-width="0.30729"
     id="path11022"
     style="fill:#000000;fill-opacity:1" />
</svg>
