<?xml version="1.0" encoding="UTF-8" standalone="no"?>
<!-- Created with Inkscape (http://www.inkscape.org/) -->

<svg
   width="118.68133mm"
   height="17.602119mm"
   viewBox="0 0 118.68133 17.602119"
   version="1.1"
   id="svg5"
   inkscape:version="1.2.2 (b0a84865, 2022-12-01)"
   sodipodi:docname="zanecorp-logo-name-only-dark.svg"
   xmlns:inkscape="http://www.inkscape.org/namespaces/inkscape"
   xmlns:sodipodi="http://sodipodi.sourceforge.net/DTD/sodipodi-0.dtd"
   xmlns="http://www.w3.org/2000/svg"
   xmlns:svg="http://www.w3.org/2000/svg">
  <sodipodi:namedview
     id="namedview7"
     pagecolor="#ffffff"
     bordercolor="#666666"
     borderopacity="1.0"
     inkscape:showpageshadow="2"
     inkscape:pageopacity="0.0"
     inkscape:pagecheckerboard="0"
     inkscape:deskcolor="#d1d1d1"
     inkscape:document-units="mm"
     showgrid="false"
     inkscape:zoom="2.0086528"
     inkscape:cx="224.27967"
     inkscape:cy="33.35569"
     inkscape:window-width="1512"
     inkscape:window-height="916"
     inkscape:window-x="212"
     inkscape:window-y="1118"
     inkscape:window-maximized="0"
     inkscape:current-layer="layer1" />
  <defs
     id="defs2" />
  <g
     inkscape:label="Layer 1"
     inkscape:groupmode="layer"
     id="layer1"
     transform="translate(-36.47754,-252.3822)">
    <g
       id="g1405"
       transform="translate(0,-4.7625002)"
       style="fill:#ffffff;fill-opacity:1;stroke:#ffffff;stroke-opacity:1">
      <g
         aria-label="ZANECORP"
         id="text474"
         style="font-size:22.225px;line-height:0.95;font-family:'URW Gothic L';-inkscape-font-specification:'URW Gothic L';letter-spacing:0px;fill:#ffffff;fill-opacity:1;stroke:#ffffff;stroke-width:0.6;stroke-dasharray:none;stroke-opacity:1">
        <path
           d="m 46.934366,274.1579 v -1.48908 H 38.64444 l 8.045451,-13.44612 v -1.48908 h -9.667876 v 1.48908 h 7.823201 l -8.067676,13.44612 v 1.48908 z"
           style="fill:#ffffff;fill-opacity:1;stroke:#ffffff;stroke-width:0.6;stroke-dasharray:none;stroke-opacity:1"
           id="path3107" />
        <path
           d="M 63.26973,274.1579 56.20218,257.73362 H 54.357505 L 47.31218,274.1579 h 1.73355 l 2.4003,-5.53403 h 7.6454 l 2.378075,5.53403 z m -4.822825,-7.0231 H 52.06833 l 3.222625,-7.53428 z"
           style="fill:#ffffff;fill-opacity:1;stroke:#ffffff;stroke-width:0.6;stroke-dasharray:none;stroke-opacity:1"
           id="path3109" />
        <path
           d="m 78.2716,274.1579 v -16.42428 h -1.64465 v 13.62393 L 67.4258,257.73362 h -2.2225 v 16.42428 h 1.64465 v -14.44625 l 9.779,14.44625 z"
           style="fill:#ffffff;fill-opacity:1;stroke:#ffffff;stroke-width:0.6;stroke-dasharray:none;stroke-opacity:1"
           id="path3111" />
        <path
           d="m 90.628697,274.1579 v -1.48908 h -7.33425 v -6.06742 h 7.089775 v -1.48908 h -7.089775 v -5.88962 h 7.33425 v -1.48908 h -8.9789 v 16.42428 z"
           style="fill:#ffffff;fill-opacity:1;stroke:#ffffff;stroke-width:0.6;stroke-dasharray:none;stroke-opacity:1"
           id="path3113" />
        <path
           d="m 108.98653,269.84625 h -1.82245 c -1.73355,2.17805 -3.31153,3.08927 -5.71183,3.08927 -3.80047,0 -6.934195,-3.15595 -6.934195,-7.00087 0,-3.95605 3.000375,-6.97865 6.911975,-6.97865 2.3114,0 4.24497,0.84455 5.64515,3.04482 h 1.84467 c -1.26682,-2.82257 -4.15607,-4.55612 -7.5565,-4.55612 -4.889495,0 -8.51217,3.6449 -8.51217,8.55662 0,4.8006 3.711575,8.4455 8.6233,8.4455 3.33375,0 5.8674,-1.55575 7.51205,-4.60057 z"
           style="fill:#ffffff;fill-opacity:1;stroke:#ffffff;stroke-width:0.6;stroke-dasharray:none;stroke-opacity:1"
           id="path3115" />
        <path
           d="m 127.83332,265.95687 c 0,-4.68947 -3.9116,-8.51217 -8.66775,-8.51217 -4.7117,0 -8.68998,3.84492 -8.68998,8.40105 0,4.77837 3.86715,8.60107 8.68998,8.60107 4.75615,0 8.66775,-3.84492 8.66775,-8.48995 z m -1.66688,0.0222 c 0,3.80047 -3.17817,6.95642 -7.00087,6.95642 -3.86715,0 -7.0231,-3.15595 -7.0231,-7.04532 0,-3.75603 3.22262,-6.9342 7.0231,-6.9342 3.8227,0 7.00087,3.17817 7.00087,7.0231 z"
           style="fill:#ffffff;fill-opacity:1;stroke:#ffffff;stroke-width:0.6;stroke-dasharray:none;stroke-opacity:1"
           id="path3117" />
        <path
           d="m 141.63502,263.02317 c 0,-3.42265 -1.91135,-5.28955 -7.06755,-5.28955 h -4.06717 v 16.42428 h 1.64465 v -14.9352 h 2.3114 c 3.8227,0 5.5118,1.00012 5.5118,3.7338 0,2.95592 -1.55575,3.75602 -6.15633,3.75602 l 5.53403,7.44538 h 2.0447 l -4.60058,-6.1341 c 3.15595,-0.33338 4.84505,-2.08915 4.84505,-5.00063 z"
           style="fill:#ffffff;fill-opacity:1;stroke:#ffffff;stroke-width:0.6;stroke-dasharray:none;stroke-opacity:1"
           id="path3119" />
        <path
           d="m 154.85887,262.71202 c 0,-3.44487 -1.82245,-4.9784 -6.33412,-4.9784 h -4.5339 v 16.42428 h 1.64465 v -6.64528 h 3.15595 c 4.46722,0 6.06742,-1.6891 6.06742,-4.8006 z m -1.66687,0 c 0,2.37808 -1.2446,3.31153 -4.51168,3.31153 h -3.04482 v -6.80085 h 2.33362 c 3.13373,0 5.22288,0.15557 5.22288,3.48932 z"
           style="fill:#ffffff;fill-opacity:1;stroke:#ffffff;stroke-width:0.6;stroke-dasharray:none;stroke-opacity:1"
           id="path3121" />
      </g>
    </g>
    <path
       id="path1653"
       style="fill:#000000;fill-opacity:1;stroke:#000000;stroke-width:0.37;stroke-linecap:butt;stroke-linejoin:miter;stroke-dasharray:none;stroke-opacity:1"
       d="m 49.778846,268.91586 10.954565,0.0535 c -1.845703,-4.21289 -3.59647,-8.65764 -5.442173,-12.87053 -1.817708,4.21289 -3.694684,8.60413 -5.512392,12.81703 z"
       sodipodi:nodetypes="cccc" />
  </g>
</svg>
